# xmcd CD database file
#
# Track frame offsets:
#	150
#	8712
#	16570
#	31387
#	42507
#	50652
#	61222
#	71725
#	79779
#	92485
#	103585
#	113847
#	123020
#	131482
#	145612
#	158387
#	169182
#	178022
#
# Disc length: 2528 seconds
#
# Revision: 0
# Processed by: cddbd v1.4PL0 Copyright (c) Steve Scherf et al.
# Submitted via: CDex 1.40Release
#
DISCID=db09de12
DTITLE=Roger Miller - Memories of Roger Miller
DYEAR=1985
DGENRE=Country
TTITLE0=England Swings
TTITLE1=Dang Me
TTITLE2=Me and Bobby McGee
TTITLE3=Husbands and Wives
TTITLE4=In the Summertime
TTITLE5=When two worlds Collide
TTITLE6=Kansas City Star
TTITLE7=Do-Wacka-Do
TTITLE8=The Last Word in Lonesome is Me
TTITLE9=King of the Road
TTITLE10=Engine Engine
TTITLE11=Chug A Lug
TTITLE12=You can't Rollerskate in a Buffolo Herd
TTITLE13=My Elusive Dreams
TTITLE14=Heartaches by the Number
TTITLE15=Burning Bridges
TTITLE16=Billy Bayou
TTITLE17=Walking in the Sunshine
EXTD=YEAR: 1985 ID3G: 2
EXTT0=
EXTT1=
EXTT2=
EXTT3=
EXTT4=
EXTT5=
EXTT6=
EXTT7=
EXTT8=
EXTT9=
EXTT10=
EXTT11=
EXTT12=
EXTT13=
EXTT14=
EXTT15=
EXTT16=
EXTT17=
PLAYORDER=
